<svg xmlns="http://www.w3.org/2000/svg" xmlns:xlink="http://www.w3.org/1999/xlink" width="500" zoomAndPan="magnify" viewBox="0 0 375 374.999991" height="500" preserveAspectRatio="xMidYMid meet" version="1.0"><defs><g/><clipPath id="8dbb23e5c5"><path d="M 111.40625 103.027344 L 263.65625 103.027344 L 263.65625 188.527344 L 111.40625 188.527344 Z M 111.40625 103.027344 " clip-rule="nonzero"/></clipPath></defs><rect x="-37.5" width="450" fill="#ffffff" y="-37.499999" height="449.999989" fill-opacity="1"/><rect x="-37.5" width="450" fill="#ffeddc" y="-37.499999" height="449.999989" fill-opacity="1"/><g clip-path="url(#8dbb23e5c5)"><path fill="#a57667" d="M 155.015625 183.6875 C 154.164062 184.050781 153.527344 183.804688 152.929688 183.695312 C 146.582031 182.566406 140.289062 181.175781 133.992188 179.796875 C 128.195312 178.523438 122.382812 177.328125 116.574219 176.109375 C 115.140625 175.808594 113.664062 175.703125 112.261719 175.253906 C 112.007812 175.171875 111.519531 175.171875 111.625 174.757812 C 111.726562 174.382812 112.136719 174.570312 112.421875 174.609375 C 117.640625 175.316406 122.726562 176.652344 127.847656 177.816406 C 135.832031 179.632812 143.914062 180.96875 151.863281 182.945312 C 152.835938 183.1875 153.816406 183.40625 155.015625 183.6875 Z M 258.175781 177.523438 C 252.242188 178.851562 246.238281 179.742188 240.242188 180.6875 C 235.488281 181.433594 230.773438 182.375 226.082031 183.433594 C 225.75 183.511719 225.117188 183.519531 225.191406 183.921875 C 225.285156 184.425781 225.804688 184.058594 226.140625 184.023438 C 226.410156 183.992188 226.683594 183.960938 226.949219 183.898438 C 237.695312 181.417969 248.65625 180.128906 259.460938 178 C 260.875 177.71875 262.324219 177.542969 263.492188 176.550781 C 261.722656 176.957031 259.925781 177.132812 258.175781 177.523438 Z M 190.976562 159.320312 C 191.292969 150.269531 191.003906 141.222656 190.953125 132.171875 C 190.941406 130.125 190.941406 128.074219 190.914062 126.027344 C 190.90625 125.640625 190.984375 124.960938 190.585938 124.964844 C 190.058594 124.972656 190.1875 125.65625 190.179688 126.046875 C 190.148438 127.925781 190.082031 129.808594 190.1875 131.679688 C 190.425781 135.875 190.652344 140.074219 190.472656 144.273438 C 190.28125 148.746094 190.445312 153.21875 190.417969 157.691406 C 190.414062 158.554688 190.433594 159.4375 190.699219 160.464844 C 191.066406 159.992188 190.96875 159.644531 190.976562 159.320312 Z M 214.167969 164.683594 C 218.808594 159.15625 222.625 153.027344 226.992188 147.300781 C 227.734375 146.328125 228.511719 145.359375 228.914062 144.175781 C 228.980469 143.980469 229.210938 143.746094 228.871094 143.566406 C 228.5 143.855469 212.859375 165.816406 212.65625 166.503906 C 213.277344 165.757812 213.71875 165.21875 214.167969 164.683594 Z M 238.316406 147.695312 C 237.886719 147.828125 216.261719 168.464844 215.617188 169.421875 C 218.273438 167.871094 238.027344 148.90625 238.316406 147.695312 Z M 168.460938 166.660156 C 167.671875 165.152344 153.972656 144.367188 153.457031 143.972656 C 153.503906 145.535156 167.199219 166.171875 168.460938 166.660156 Z M 240.71875 166.644531 C 235.535156 169.246094 230.300781 171.738281 225.242188 174.578125 C 223.992188 175.277344 222.714844 175.929688 221.460938 176.625 C 221.230469 176.753906 220.769531 176.886719 221.023438 177.269531 C 221.226562 177.566406 221.515625 177.25 221.730469 177.121094 C 222.839844 176.449219 223.90625 175.699219 225.054688 175.101562 C 231.015625 172 237.167969 169.300781 243.207031 166.355469 C 243.882812 166.027344 244.546875 165.707031 245.132812 164.789062 C 243.464844 165.484375 242.046875 165.976562 240.71875 166.644531 Z M 159.390625 174.722656 C 152.824219 171.140625 146.253906 167.566406 139.683594 163.992188 C 139.414062 163.847656 139.132812 163.722656 138.847656 163.613281 C 138.636719 163.527344 138.363281 163.339844 138.210938 163.617188 C 138.058594 163.902344 138.363281 164.027344 138.554688 164.148438 C 139.488281 164.722656 140.398438 165.335938 141.359375 165.84375 C 147.304688 168.996094 153.367188 171.914062 159.25 175.183594 C 159.5625 175.355469 159.859375 175.652344 160.328125 175.460938 C 160.140625 175.03125 159.730469 174.910156 159.390625 174.722656 Z M 159.988281 161.78125 C 155.898438 157.097656 151.671875 152.53125 147.792969 147.667969 C 146.109375 145.558594 144.566406 143.339844 142.921875 141.199219 C 142.695312 140.90625 142.394531 140.234375 141.941406 140.621094 C 141.601562 140.910156 142.160156 141.316406 142.378906 141.636719 C 145.589844 146.289062 149.464844 150.398438 153.125 154.679688 C 155.457031 157.40625 157.851562 160.070312 160.554688 162.742188 C 160.453125 162.171875 160.183594 162 159.988281 161.78125 Z M 210.121094 139.527344 C 208.867188 140.925781 201.890625 160.726562 202.136719 162.171875 C 202.394531 161.910156 210.160156 139.875 210.121094 139.527344 Z M 172.039062 139.730469 C 171.847656 140.4375 172.148438 141.085938 172.363281 141.738281 C 173.550781 145.304688 175.3125 148.644531 176.480469 152.21875 C 177.355469 154.878906 178.296875 157.511719 179.234375 160.152344 C 179.386719 160.585938 179.460938 161.117188 180.226562 161.214844 C 177.601562 154.023438 174.976562 146.828125 172.351562 139.636719 C 172.246094 139.667969 172.144531 139.699219 172.039062 139.730469 Z M 139.226562 172.835938 C 143.488281 174.574219 147.75 176.304688 152.015625 178.03125 C 153.4375 178.605469 154.859375 179.179688 156.292969 179.730469 C 156.667969 179.875 157.078125 180.074219 157.578125 179.738281 C 157.359375 179.597656 157.234375 179.480469 157.085938 179.421875 C 151.460938 177.148438 145.804688 174.949219 140.261719 172.476562 C 139.71875 172.234375 139.128906 171.996094 138.398438 172.144531 C 138.574219 172.625 138.925781 172.714844 139.226562 172.835938 Z M 151.296875 187.445312 C 149.195312 187.242188 147.078125 187.3125 144.980469 186.996094 C 143.199219 186.730469 141.429688 186.308594 139.613281 186.425781 C 139.105469 186.457031 138.203125 185.882812 138.164062 186.683594 C 138.132812 187.304688 139.152344 187.164062 139.71875 187.210938 C 142.433594 187.429688 145.148438 187.648438 147.871094 187.777344 C 149.679688 187.863281 151.488281 188.109375 153.3125 187.917969 C 152.675781 187.566406 151.992188 187.511719 151.296875 187.445312 Z M 227.609375 187.4375 C 231.332031 187.382812 235.046875 187.15625 238.769531 187.269531 C 239.589844 187.292969 240.414062 187.269531 241.226562 187.179688 C 241.636719 187.136719 242.402344 187.382812 242.359375 186.714844 C 242.324219 186.199219 241.609375 186.410156 241.203125 186.425781 C 236.839844 186.601562 232.480469 186.9375 228.105469 186.855469 C 227.578125 186.847656 227.054688 186.949219 226.421875 187.25 C 226.933594 187.535156 227.277344 187.441406 227.609375 187.4375 Z M 214.179688 148.761719 C 213.554688 149.136719 206.785156 162.574219 206.859375 163.296875 C 209.554688 158.574219 211.921875 153.699219 214.179688 148.761719 Z M 224.289062 180.253906 C 227.917969 178.566406 231.835938 177.660156 235.527344 176.152344 C 236.007812 175.957031 236.992188 176.011719 236.820312 175.375 C 236.703125 174.933594 235.792969 175.375 235.28125 175.5625 C 231.535156 176.933594 227.796875 178.335938 224.058594 179.730469 C 223.898438 179.789062 223.734375 179.847656 223.589844 179.9375 C 223.476562 180.007812 223.378906 180.125 223.453125 180.277344 C 223.523438 180.414062 223.65625 180.441406 223.800781 180.410156 C 223.964844 180.359375 224.132812 180.324219 224.289062 180.253906 Z M 162.792969 170.269531 C 161.945312 169.691406 161.089844 169.128906 160.230469 168.570312 C 157.652344 166.894531 155.347656 164.835938 152.699219 163.257812 C 152.351562 163.050781 152.015625 162.65625 151.269531 163.023438 C 155.253906 165.945312 159.410156 168.351562 163.296875 171.160156 C 163.445312 170.535156 163.054688 170.449219 162.792969 170.269531 Z M 227.773438 164.410156 C 225.972656 165.878906 224.09375 167.242188 222.203125 168.589844 C 220.644531 169.695312 219.117188 170.847656 217.59375 172 C 217.375 172.164062 216.945312 172.40625 217.214844 172.707031 C 217.46875 172.988281 217.742188 172.59375 217.957031 172.414062 C 219.941406 170.734375 222.023438 169.195312 224.273438 167.878906 C 225.480469 167.171875 226.609375 166.332031 227.65625 165.394531 C 228.050781 165.039062 228.503906 164.707031 228.675781 164.105469 C 228.199219 163.941406 228 164.222656 227.773438 164.410156 Z M 184.789062 157.609375 C 184.371094 154.816406 183.980469 152.015625 183.527344 149.230469 C 183.464844 148.828125 183.5 148.027344 182.925781 148.152344 C 182.453125 148.253906 182.75 148.976562 182.804688 149.421875 C 183.105469 151.960938 183.683594 154.449219 184.253906 156.9375 C 184.523438 158.113281 184.429688 159.363281 185.078125 160.476562 C 185.261719 159.492188 184.929688 158.5625 184.789062 157.609375 Z M 196.742188 160.777344 C 197.347656 156.902344 198.300781 153.097656 199.050781 149.25 C 199.089844 149.0625 199.210938 148.8125 198.933594 148.738281 C 198.683594 148.675781 198.605469 148.917969 198.546875 149.113281 C 198.464844 149.375 198.40625 149.640625 198.332031 149.90625 C 197.652344 152.304688 197.320312 154.773438 196.910156 157.226562 C 196.691406 158.511719 196.28125 159.777344 196.589844 161.144531 C 196.640625 161.019531 196.722656 160.902344 196.742188 160.777344 Z M 173.824219 162.46875 C 172.589844 159.929688 171.363281 157.382812 170.089844 154.863281 C 169.570312 153.828125 168.957031 152.847656 168.371094 151.847656 C 168.277344 151.6875 168.136719 151.460938 167.898438 151.640625 C 167.722656 151.773438 167.863281 151.957031 167.921875 152.105469 C 168.011719 152.324219 168.109375 152.542969 168.222656 152.753906 C 170 156.125 171.777344 159.496094 173.566406 162.863281 C 173.683594 163.082031 173.730469 163.402344 174.09375 163.414062 C 174.226562 163.035156 173.964844 162.757812 173.824219 162.46875 Z M 126.292969 143.207031 C 126.117188 143.105469 125.871094 143.039062 125.738281 143.238281 C 125.574219 143.480469 125.730469 143.710938 125.929688 143.855469 C 127.816406 145.234375 129.660156 146.6875 131.914062 147.542969 C 130.238281 145.855469 128.355469 144.414062 126.292969 143.207031 Z M 151.984375 113.128906 C 151.859375 112.921875 151.667969 112.726562 151.398438 112.90625 C 151.15625 113.066406 151.191406 113.324219 151.292969 113.550781 C 152.105469 115.308594 153.074219 116.96875 154.242188 118.519531 C 153.929688 116.53125 153.007812 114.804688 151.984375 113.128906 Z M 157.882812 126.414062 C 157.347656 124.117188 156.410156 121.996094 155.058594 120.0625 C 155.414062 122.441406 156.5625 124.46875 157.882812 126.414062 Z M 230.570312 121.609375 C 231.757812 119.667969 232.949219 117.730469 234.125 115.78125 C 234.285156 115.511719 234.660156 115.15625 234.285156 114.890625 C 233.839844 114.578125 233.625 115.070312 233.445312 115.367188 C 232.246094 117.308594 231.304688 119.378906 230.335938 121.433594 C 230.414062 121.492188 230.492188 121.550781 230.570312 121.609375 Z M 191.152344 103.457031 C 191.15625 103.289062 191.132812 103.09375 190.917969 103.0625 C 190.664062 103.027344 190.5625 103.207031 190.527344 103.429688 C 190.179688 105.53125 190.261719 107.609375 190.824219 109.667969 C 191.28125 107.613281 191.109375 105.53125 191.152344 103.457031 Z M 260.609375 188.433594 C 261.21875 188.390625 261.828125 188.324219 262.433594 188.230469 C 262.613281 188.203125 262.828125 188.082031 262.8125 187.824219 C 262.804688 187.644531 262.632812 187.628906 262.511719 187.625 C 260.4375 187.515625 258.390625 187.765625 256.363281 188.238281 C 257.785156 188.535156 259.195312 188.535156 260.609375 188.433594 Z M 134.761719 149.214844 C 134.648438 149.140625 134.519531 149.089844 134.390625 149.046875 C 134.222656 148.988281 134.027344 148.960938 133.957031 149.160156 C 133.921875 149.257812 133.964844 149.449219 134.046875 149.519531 C 135.484375 150.816406 137.042969 151.929688 138.828125 152.710938 C 137.621094 151.359375 136.238281 150.230469 134.761719 149.214844 Z M 120.792969 184.953125 C 120.574219 184.976562 120.425781 185.152344 120.441406 185.386719 C 120.460938 185.726562 120.714844 185.828125 121.011719 185.835938 C 121.867188 185.855469 122.71875 185.867188 123.574219 185.882812 C 124.265625 185.898438 124.96875 185.980469 125.628906 185.554688 C 124.050781 185.027344 122.449219 184.773438 120.792969 184.953125 Z M 162.503906 137.359375 C 162.722656 139.363281 163.734375 141.015625 164.84375 142.625 C 164.425781 140.710938 163.832031 138.875 162.503906 137.359375 Z M 242.113281 155.585938 C 240.824219 156.414062 239.539062 157.246094 238.257812 158.085938 C 238.074219 158.207031 237.789062 158.367188 238 158.636719 C 238.140625 158.816406 238.378906 158.675781 238.558594 158.585938 C 239.929688 157.894531 241.242188 157.101562 242.460938 156.167969 C 242.617188 156.046875 242.730469 155.871094 242.898438 155.683594 C 242.644531 155.335938 242.371094 155.417969 242.113281 155.585938 Z M 220.894531 136.695312 C 222.242188 135 223.34375 133.316406 224.039062 131.394531 C 222.953125 131.972656 220.789062 135.652344 220.894531 136.695312 Z M 161.300781 134.453125 C 161.308594 133.140625 159.65625 129.351562 158.726562 128.613281 C 159.183594 130.664062 160.015625 132.546875 161.300781 134.453125 Z M 253.460938 148.933594 C 255.425781 148.277344 257.085938 147.34375 258.664062 145.898438 C 257.515625 145.921875 254.101562 147.953125 253.460938 148.933594 Z M 190.902344 112.359375 C 190.921875 112.15625 190.804688 111.953125 190.550781 111.949219 C 190.292969 111.945312 190.183594 112.148438 190.164062 112.347656 C 190.011719 114.023438 190.003906 115.695312 190.40625 117.355469 C 190.882812 115.714844 190.75 114.019531 190.902344 112.359375 Z M 251.097656 188.09375 C 251.777344 188.09375 252.453125 188.101562 253.132812 188.089844 C 253.289062 188.085938 253.5 188.082031 253.519531 187.859375 C 253.535156 187.660156 253.355469 187.5625 253.195312 187.535156 C 251.824219 187.316406 250.445312 187.164062 249.054688 187.402344 C 248.898438 187.429688 248.691406 187.457031 248.671875 187.664062 C 248.644531 187.9375 248.894531 188.007812 249.070312 188.027344 C 249.746094 188.097656 250.421875 188.125 251.097656 188.167969 C 251.097656 188.144531 251.097656 188.117188 251.097656 188.09375 Z M 245.875 153.882812 C 247.554688 153.0625 249.308594 152.351562 250.554688 150.851562 C 248.691406 151.394531 247.25 152.589844 245.875 153.882812 Z M 141.753906 154.398438 C 141.496094 154.238281 141.152344 154.015625 140.941406 154.328125 C 140.773438 154.582031 141.109375 154.808594 141.316406 154.96875 C 142.566406 155.941406 143.832031 156.894531 145.332031 157.488281 C 144.203125 156.382812 143.113281 155.230469 141.753906 154.398438 Z M 228.675781 123.941406 C 227.117188 125.378906 226.535156 127.433594 225.429688 129.167969 C 226.582031 127.476562 228.191406 126.050781 228.675781 123.941406 Z M 128.75 185.433594 C 128.535156 185.417969 128.363281 185.5625 128.335938 185.796875 C 128.3125 186.042969 128.457031 186.207031 128.679688 186.21875 C 129.679688 186.273438 130.691406 186.636719 131.914062 186.035156 C 130.757812 185.492188 129.746094 185.5 128.75 185.433594 Z M 219.546875 138.96875 C 219.613281 138.785156 219.753906 138.558594 219.480469 138.453125 C 219.246094 138.359375 219.101562 138.5625 219.011719 138.746094 C 218.46875 139.832031 217.765625 140.847656 217.542969 142.097656 C 218.449219 141.207031 219.117188 140.164062 219.546875 138.96875 Z M 216.757812 144.902344 C 216.714844 144.535156 216.5625 144.136719 216.082031 144.195312 C 215.644531 144.246094 215.507812 144.609375 215.507812 145.011719 C 215.507812 145.402344 215.675781 145.652344 216.210938 145.628906 C 216.523438 145.566406 216.808594 145.335938 216.757812 144.902344 Z M 234.136719 161.179688 C 234.148438 160.832031 233.902344 160.613281 233.558594 160.59375 C 233.125 160.566406 232.832031 160.78125 232.800781 161.226562 C 232.777344 161.601562 233.015625 161.769531 233.378906 161.804688 C 233.773438 161.78125 234.125 161.644531 234.136719 161.179688 Z M 167.910156 149.585938 C 167.925781 149.199219 167.714844 148.929688 167.316406 148.894531 C 166.964844 148.863281 166.710938 149.035156 166.722656 149.414062 C 166.730469 149.816406 167.007812 150 167.347656 150.082031 C 167.691406 150.070312 167.894531 149.886719 167.910156 149.585938 Z M 147.648438 160.3125 C 147.691406 160.738281 147.96875 160.96875 148.390625 160.972656 C 148.703125 160.976562 148.890625 160.785156 148.875 160.464844 C 148.855469 160.003906 148.523438 159.863281 148.148438 159.789062 C 147.839844 159.839844 147.617188 159.984375 147.648438 160.3125 Z M 245.421875 186.632812 C 245.066406 186.625 244.808594 186.816406 244.816406 187.164062 C 244.828125 187.582031 245.15625 187.703125 245.53125 187.691406 C 245.863281 187.6875 246.007812 187.492188 246.03125 187.183594 C 245.980469 186.832031 245.773438 186.644531 245.421875 186.632812 Z M 190.179688 120.4375 C 189.914062 120.414062 189.742188 120.601562 189.726562 120.875 C 189.707031 121.199219 189.792969 121.5 190.15625 121.574219 C 190.507812 121.648438 190.617188 121.386719 190.679688 121.078125 C 190.632812 120.785156 190.550781 120.472656 190.179688 120.4375 Z M 135.742188 186.589844 C 135.742188 186.261719 135.523438 186.082031 135.226562 186.117188 C 134.90625 186.15625 134.671875 186.363281 134.675781 186.726562 C 134.679688 187.019531 134.886719 187.117188 135.15625 187.128906 C 135.480469 187.09375 135.746094 186.976562 135.742188 186.589844 Z M 135.742188 186.589844 " fill-opacity="1" fill-rule="nonzero"/><path fill="#a57667" d="M 155.015625 183.6875 C 154.164062 184.050781 153.527344 183.804688 152.929688 183.695312 C 146.582031 182.566406 140.289062 181.175781 133.992188 179.796875 C 128.195312 178.523438 122.382812 177.328125 116.574219 176.109375 C 115.140625 175.808594 113.664062 175.703125 112.261719 175.253906 C 112.007812 175.171875 111.519531 175.171875 111.625 174.757812 C 111.726562 174.382812 112.136719 174.570312 112.421875 174.609375 C 117.640625 175.316406 122.726562 176.652344 127.847656 177.816406 C 135.832031 179.632812 143.914062 180.96875 151.863281 182.945312 C 152.835938 183.1875 153.816406 183.40625 155.015625 183.6875 Z M 258.175781 177.523438 C 252.242188 178.851562 246.238281 179.742188 240.242188 180.6875 C 235.488281 181.433594 230.773438 182.375 226.082031 183.433594 C 225.75 183.511719 225.117188 183.519531 225.191406 183.921875 C 225.285156 184.425781 225.804688 184.058594 226.140625 184.023438 C 226.410156 183.992188 226.683594 183.960938 226.949219 183.898438 C 237.695312 181.417969 248.65625 180.128906 259.460938 178 C 260.875 177.71875 262.324219 177.542969 263.492188 176.550781 C 261.722656 176.957031 259.925781 177.132812 258.175781 177.523438 Z M 190.976562 159.320312 C 191.292969 150.269531 191.003906 141.222656 190.953125 132.171875 C 190.941406 130.125 190.941406 128.074219 190.914062 126.027344 C 190.90625 125.640625 190.984375 124.960938 190.585938 124.964844 C 190.058594 124.972656 190.1875 125.65625 190.179688 126.046875 C 190.148438 127.925781 190.082031 129.808594 190.1875 131.679688 C 190.425781 135.875 190.652344 140.074219 190.472656 144.273438 C 190.28125 148.746094 190.445312 153.21875 190.417969 157.691406 C 190.414062 158.554688 190.433594 159.4375 190.699219 160.464844 C 191.066406 159.992188 190.96875 159.644531 190.976562 159.320312 Z M 214.167969 164.683594 C 218.808594 159.15625 222.625 153.027344 226.992188 147.300781 C 227.734375 146.328125 228.511719 145.359375 228.914062 144.175781 C 228.980469 143.980469 229.210938 143.746094 228.871094 143.566406 C 228.5 143.855469 212.859375 165.816406 212.65625 166.503906 C 213.277344 165.757812 213.71875 165.21875 214.167969 164.683594 Z M 238.316406 147.695312 C 237.886719 147.828125 216.261719 168.464844 215.617188 169.421875 C 218.273438 167.871094 238.027344 148.90625 238.316406 147.695312 Z M 168.460938 166.660156 C 167.671875 165.152344 153.972656 144.367188 153.457031 143.972656 C 153.503906 145.535156 167.199219 166.171875 168.460938 166.660156 Z M 240.71875 166.644531 C 235.535156 169.246094 230.300781 171.738281 225.242188 174.578125 C 223.992188 175.277344 222.714844 175.929688 221.460938 176.625 C 221.230469 176.753906 220.769531 176.886719 221.023438 177.269531 C 221.226562 177.566406 221.515625 177.25 221.730469 177.121094 C 222.839844 176.449219 223.90625 175.699219 225.054688 175.101562 C 231.015625 172 237.167969 169.300781 243.207031 166.355469 C 243.882812 166.027344 244.546875 165.707031 245.132812 164.789062 C 243.464844 165.484375 242.046875 165.976562 240.71875 166.644531 Z M 159.390625 174.722656 C 152.824219 171.140625 146.253906 167.566406 139.683594 163.992188 C 139.414062 163.847656 139.132812 163.722656 138.847656 163.613281 C 138.636719 163.527344 138.363281 163.339844 138.210938 163.617188 C 138.058594 163.902344 138.363281 164.027344 138.554688 164.148438 C 139.488281 164.722656 140.398438 165.335938 141.359375 165.84375 C 147.304688 168.996094 153.367188 171.914062 159.25 175.183594 C 159.5625 175.355469 159.859375 175.652344 160.328125 175.460938 C 160.140625 175.03125 159.730469 174.910156 159.390625 174.722656 Z M 159.988281 161.78125 C 155.898438 157.097656 151.671875 152.53125 147.792969 147.667969 C 146.109375 145.558594 144.566406 143.339844 142.921875 141.199219 C 142.695312 140.90625 142.394531 140.234375 141.941406 140.621094 C 141.601562 140.910156 142.160156 141.316406 142.378906 141.636719 C 145.589844 146.289062 149.464844 150.398438 153.125 154.679688 C 155.457031 157.40625 157.851562 160.070312 160.554688 162.742188 C 160.453125 162.171875 160.183594 162 159.988281 161.78125 Z M 210.121094 139.527344 C 208.867188 140.925781 201.890625 160.726562 202.136719 162.171875 C 202.394531 161.910156 210.160156 139.875 210.121094 139.527344 Z M 172.039062 139.730469 C 171.847656 140.4375 172.148438 141.085938 172.363281 141.738281 C 173.550781 145.304688 175.3125 148.644531 176.480469 152.21875 C 177.355469 154.878906 178.296875 157.511719 179.234375 160.152344 C 179.386719 160.585938 179.460938 161.117188 180.226562 161.214844 C 177.601562 154.023438 174.976562 146.828125 172.351562 139.636719 C 172.246094 139.667969 172.144531 139.699219 172.039062 139.730469 Z M 139.226562 172.835938 C 143.488281 174.574219 147.75 176.304688 152.015625 178.03125 C 153.4375 178.605469 154.859375 179.179688 156.292969 179.730469 C 156.667969 179.875 157.078125 180.074219 157.578125 179.738281 C 157.359375 179.597656 157.234375 179.480469 157.085938 179.421875 C 151.460938 177.148438 145.804688 174.949219 140.261719 172.476562 C 139.71875 172.234375 139.128906 171.996094 138.398438 172.144531 C 138.574219 172.625 138.925781 172.714844 139.226562 172.835938 Z M 151.296875 187.445312 C 149.195312 187.242188 147.078125 187.3125 144.980469 186.996094 C 143.199219 186.730469 141.429688 186.308594 139.613281 186.425781 C 139.105469 186.457031 138.203125 185.882812 138.164062 186.683594 C 138.132812 187.304688 139.152344 187.164062 139.71875 187.210938 C 142.433594 187.429688 145.148438 187.648438 147.871094 187.777344 C 149.679688 187.863281 151.488281 188.109375 153.3125 187.917969 C 152.675781 187.566406 151.992188 187.511719 151.296875 187.445312 Z M 227.609375 187.4375 C 231.332031 187.382812 235.046875 187.15625 238.769531 187.269531 C 239.589844 187.292969 240.414062 187.269531 241.226562 187.179688 C 241.636719 187.136719 242.402344 187.382812 242.359375 186.714844 C 242.324219 186.199219 241.609375 186.410156 241.203125 186.425781 C 236.839844 186.601562 232.480469 186.9375 228.105469 186.855469 C 227.578125 186.847656 227.054688 186.949219 226.421875 187.25 C 226.933594 187.535156 227.277344 187.441406 227.609375 187.4375 Z M 214.179688 148.761719 C 213.554688 149.136719 206.785156 162.574219 206.859375 163.296875 C 209.554688 158.574219 211.921875 153.699219 214.179688 148.761719 Z M 224.289062 180.253906 C 227.917969 178.566406 231.835938 177.660156 235.527344 176.152344 C 236.007812 175.957031 236.992188 176.011719 236.820312 175.375 C 236.703125 174.933594 235.792969 175.375 235.28125 175.5625 C 231.535156 176.933594 227.796875 178.335938 224.058594 179.730469 C 223.898438 179.789062 223.734375 179.847656 223.589844 179.9375 C 223.476562 180.007812 223.378906 180.125 223.453125 180.277344 C 223.523438 180.414062 223.65625 180.441406 223.800781 180.410156 C 223.964844 180.359375 224.132812 180.324219 224.289062 180.253906 Z M 162.792969 170.269531 C 161.945312 169.691406 161.089844 169.128906 160.230469 168.570312 C 157.652344 166.894531 155.347656 164.835938 152.699219 163.257812 C 152.351562 163.050781 152.015625 162.65625 151.269531 163.023438 C 155.253906 165.945312 159.410156 168.351562 163.296875 171.160156 C 163.445312 170.535156 163.054688 170.449219 162.792969 170.269531 Z M 227.773438 164.410156 C 225.972656 165.878906 224.09375 167.242188 222.203125 168.589844 C 220.644531 169.695312 219.117188 170.847656 217.59375 172 C 217.375 172.164062 216.945312 172.40625 217.214844 172.707031 C 217.46875 172.988281 217.742188 172.59375 217.957031 172.414062 C 219.941406 170.734375 222.023438 169.195312 224.273438 167.878906 C 225.480469 167.171875 226.609375 166.332031 227.65625 165.394531 C 228.050781 165.039062 228.503906 164.707031 228.675781 164.105469 C 228.199219 163.941406 228 164.222656 227.773438 164.410156 Z M 184.789062 157.609375 C 184.371094 154.816406 183.980469 152.015625 183.527344 149.230469 C 183.464844 148.828125 183.5 148.027344 182.925781 148.152344 C 182.453125 148.253906 182.75 148.976562 182.804688 149.421875 C 183.105469 151.960938 183.683594 154.449219 184.253906 156.9375 C 184.523438 158.113281 184.429688 159.363281 185.078125 160.476562 C 185.261719 159.492188 184.929688 158.5625 184.789062 157.609375 Z M 196.742188 160.777344 C 197.347656 156.902344 198.300781 153.097656 199.050781 149.25 C 199.089844 149.0625 199.210938 148.8125 198.933594 148.738281 C 198.683594 148.675781 198.605469 148.917969 198.546875 149.113281 C 198.464844 149.375 198.40625 149.640625 198.332031 149.90625 C 197.652344 152.304688 197.320312 154.773438 196.910156 157.226562 C 196.691406 158.511719 196.28125 159.777344 196.589844 161.144531 C 196.640625 161.019531 196.722656 160.902344 196.742188 160.777344 Z M 173.824219 162.46875 C 172.589844 159.929688 171.363281 157.382812 170.089844 154.863281 C 169.570312 153.828125 168.957031 152.847656 168.371094 151.847656 C 168.277344 151.6875 168.136719 151.460938 167.898438 151.640625 C 167.722656 151.773438 167.863281 151.957031 167.921875 152.105469 C 168.011719 152.324219 168.109375 152.542969 168.222656 152.753906 C 170 156.125 171.777344 159.496094 173.566406 162.863281 C 173.683594 163.082031 173.730469 163.402344 174.09375 163.414062 C 174.226562 163.035156 173.964844 162.757812 173.824219 162.46875 Z M 126.292969 143.207031 C 126.117188 143.105469 125.871094 143.039062 125.738281 143.238281 C 125.574219 143.480469 125.730469 143.710938 125.929688 143.855469 C 127.816406 145.234375 129.660156 146.6875 131.914062 147.542969 C 130.238281 145.855469 128.355469 144.414062 126.292969 143.207031 Z M 151.984375 113.128906 C 151.859375 112.921875 151.667969 112.726562 151.398438 112.90625 C 151.15625 113.066406 151.191406 113.324219 151.292969 113.550781 C 152.105469 115.308594 153.074219 116.96875 154.242188 118.519531 C 153.929688 116.53125 153.007812 114.804688 151.984375 113.128906 Z M 157.882812 126.414062 C 157.347656 124.117188 156.410156 121.996094 155.058594 120.0625 C 155.414062 122.441406 156.5625 124.46875 157.882812 126.414062 Z M 230.570312 121.609375 C 231.757812 119.667969 232.949219 117.730469 234.125 115.78125 C 234.285156 115.511719 234.660156 115.15625 234.285156 114.890625 C 233.839844 114.578125 233.625 115.070312 233.445312 115.367188 C 232.246094 117.308594 231.304688 119.378906 230.335938 121.433594 C 230.414062 121.492188 230.492188 121.550781 230.570312 121.609375 Z M 191.152344 103.457031 C 191.15625 103.289062 191.132812 103.09375 190.917969 103.0625 C 190.664062 103.027344 190.5625 103.207031 190.527344 103.429688 C 190.179688 105.53125 190.261719 107.609375 190.824219 109.667969 C 191.28125 107.613281 191.109375 105.53125 191.152344 103.457031 Z M 260.609375 188.433594 C 261.21875 188.390625 261.828125 188.324219 262.433594 188.230469 C 262.613281 188.203125 262.828125 188.082031 262.8125 187.824219 C 262.804688 187.644531 262.632812 187.628906 262.511719 187.625 C 260.4375 187.515625 258.390625 187.765625 256.363281 188.238281 C 257.785156 188.535156 259.195312 188.535156 260.609375 188.433594 Z M 134.761719 149.214844 C 134.648438 149.140625 134.519531 149.089844 134.390625 149.046875 C 134.222656 148.988281 134.027344 148.960938 133.957031 149.160156 C 133.921875 149.257812 133.964844 149.449219 134.046875 149.519531 C 135.484375 150.816406 137.042969 151.929688 138.828125 152.710938 C 137.621094 151.359375 136.238281 150.230469 134.761719 149.214844 Z M 120.792969 184.953125 C 120.574219 184.976562 120.425781 185.152344 120.441406 185.386719 C 120.460938 185.726562 120.714844 185.828125 121.011719 185.835938 C 121.867188 185.855469 122.71875 185.867188 123.574219 185.882812 C 124.265625 185.898438 124.96875 185.980469 125.628906 185.554688 C 124.050781 185.027344 122.449219 184.773438 120.792969 184.953125 Z M 162.503906 137.359375 C 162.722656 139.363281 163.734375 141.015625 164.84375 142.625 C 164.425781 140.710938 163.832031 138.875 162.503906 137.359375 Z M 242.113281 155.585938 C 240.824219 156.414062 239.539062 157.246094 238.257812 158.085938 C 238.074219 158.207031 237.789062 158.367188 238 158.636719 C 238.140625 158.816406 238.378906 158.675781 238.558594 158.585938 C 239.929688 157.894531 241.242188 157.101562 242.460938 156.167969 C 242.617188 156.046875 242.730469 155.871094 242.898438 155.683594 C 242.644531 155.335938 242.371094 155.417969 242.113281 155.585938 Z M 220.894531 136.695312 C 222.242188 135 223.34375 133.316406 224.039062 131.394531 C 222.953125 131.972656 220.789062 135.652344 220.894531 136.695312 Z M 161.300781 134.453125 C 161.308594 133.140625 159.65625 129.351562 158.726562 128.613281 C 159.183594 130.664062 160.015625 132.546875 161.300781 134.453125 Z M 253.460938 148.933594 C 255.425781 148.277344 257.085938 147.34375 258.664062 145.898438 C 257.515625 145.921875 254.101562 147.953125 253.460938 148.933594 Z M 190.902344 112.359375 C 190.921875 112.15625 190.804688 111.953125 190.550781 111.949219 C 190.292969 111.945312 190.183594 112.148438 190.164062 112.347656 C 190.011719 114.023438 190.003906 115.695312 190.40625 117.355469 C 190.882812 115.714844 190.75 114.019531 190.902344 112.359375 Z M 251.097656 188.09375 C 251.777344 188.09375 252.453125 188.101562 253.132812 188.089844 C 253.289062 188.085938 253.5 188.082031 253.519531 187.859375 C 253.535156 187.660156 253.355469 187.5625 253.195312 187.535156 C 251.824219 187.316406 250.445312 187.164062 249.054688 187.402344 C 248.898438 187.429688 248.691406 187.457031 248.671875 187.664062 C 248.644531 187.9375 248.894531 188.007812 249.070312 188.027344 C 249.746094 188.097656 250.421875 188.125 251.097656 188.167969 C 251.097656 188.144531 251.097656 188.117188 251.097656 188.09375 Z M 245.875 153.882812 C 247.554688 153.0625 249.308594 152.351562 250.554688 150.851562 C 248.691406 151.394531 247.25 152.589844 245.875 153.882812 Z M 141.753906 154.398438 C 141.496094 154.238281 141.152344 154.015625 140.941406 154.328125 C 140.773438 154.582031 141.109375 154.808594 141.316406 154.96875 C 142.566406 155.941406 143.832031 156.894531 145.332031 157.488281 C 144.203125 156.382812 143.113281 155.230469 141.753906 154.398438 Z M 228.675781 123.941406 C 227.117188 125.378906 226.535156 127.433594 225.429688 129.167969 C 226.582031 127.476562 228.191406 126.050781 228.675781 123.941406 Z M 128.75 185.433594 C 128.535156 185.417969 128.363281 185.5625 128.335938 185.796875 C 128.3125 186.042969 128.457031 186.207031 128.679688 186.21875 C 129.679688 186.273438 130.691406 186.636719 131.914062 186.035156 C 130.757812 185.492188 129.746094 185.5 128.75 185.433594 Z M 219.546875 138.96875 C 219.613281 138.785156 219.753906 138.558594 219.480469 138.453125 C 219.246094 138.359375 219.101562 138.5625 219.011719 138.746094 C 218.46875 139.832031 217.765625 140.847656 217.542969 142.097656 C 218.449219 141.207031 219.117188 140.164062 219.546875 138.96875 Z M 216.757812 144.902344 C 216.714844 144.535156 216.5625 144.136719 216.082031 144.195312 C 215.644531 144.246094 215.507812 144.609375 215.507812 145.011719 C 215.507812 145.402344 215.675781 145.652344 216.210938 145.628906 C 216.523438 145.566406 216.808594 145.335938 216.757812 144.902344 Z M 234.136719 161.179688 C 234.148438 160.832031 233.902344 160.613281 233.558594 160.59375 C 233.125 160.566406 232.832031 160.78125 232.800781 161.226562 C 232.777344 161.601562 233.015625 161.769531 233.378906 161.804688 C 233.773438 161.78125 234.125 161.644531 234.136719 161.179688 Z M 167.910156 149.585938 C 167.925781 149.199219 167.714844 148.929688 167.316406 148.894531 C 166.964844 148.863281 166.710938 149.035156 166.722656 149.414062 C 166.730469 149.816406 167.007812 150 167.347656 150.082031 C 167.691406 150.070312 167.894531 149.886719 167.910156 149.585938 Z M 147.648438 160.3125 C 147.691406 160.738281 147.96875 160.96875 148.390625 160.972656 C 148.703125 160.976562 148.890625 160.785156 148.875 160.464844 C 148.855469 160.003906 148.523438 159.863281 148.148438 159.789062 C 147.839844 159.839844 147.617188 159.984375 147.648438 160.3125 Z M 245.421875 186.632812 C 245.066406 186.625 244.808594 186.816406 244.816406 187.164062 C 244.828125 187.582031 245.15625 187.703125 245.53125 187.691406 C 245.863281 187.6875 246.007812 187.492188 246.03125 187.183594 C 245.980469 186.832031 245.773438 186.644531 245.421875 186.632812 Z M 190.179688 120.4375 C 189.914062 120.414062 189.742188 120.601562 189.726562 120.875 C 189.707031 121.199219 189.792969 121.5 190.15625 121.574219 C 190.507812 121.648438 190.617188 121.386719 190.679688 121.078125 C 190.632812 120.785156 190.550781 120.472656 190.179688 120.4375 Z M 135.742188 186.589844 C 135.742188 186.261719 135.523438 186.082031 135.226562 186.117188 C 134.90625 186.15625 134.671875 186.363281 134.675781 186.726562 C 134.679688 187.019531 134.886719 187.117188 135.15625 187.128906 C 135.480469 187.09375 135.746094 186.976562 135.742188 186.589844 Z M 135.742188 186.589844 " fill-opacity="1" fill-rule="nonzero"/></g><g fill="#a57667" fill-opacity="1"><g transform="translate(65.589469, 230.113092)"><g><path d="M 1.296875 0 L 1.296875 -0.34375 L 2.28125 -0.34375 C 4.144531 -0.34375 5.078125 -1.160156 5.078125 -2.796875 L 5.078125 -21.65625 C 5.078125 -23.195312 4.144531 -23.96875 2.28125 -23.96875 L 1.296875 -23.96875 L 1.296875 -24.3125 L 7.9375 -24.3125 L 20.90625 -4.875 L 20.90625 -21.515625 C 20.90625 -23.148438 19.972656 -23.96875 18.109375 -23.96875 L 17.15625 -23.96875 L 17.15625 -24.3125 L 25.03125 -24.3125 L 25.03125 -23.96875 L 24.03125 -23.96875 C 22.175781 -23.96875 21.25 -23.148438 21.25 -21.515625 L 21.25 0 L 20.21875 0 L 5.40625 -22.203125 L 5.40625 -2.796875 C 5.40625 -1.160156 6.335938 -0.34375 8.203125 -0.34375 L 9.15625 -0.34375 L 9.15625 0 Z M 1.296875 0 "/></g></g></g><g fill="#a57667" fill-opacity="1"><g transform="translate(91.560594, 230.113092)"><g><path d="M 7.859375 8.171875 C 5.503906 8.171875 3.734375 7.742188 2.546875 6.890625 C 1.367188 6.046875 0.78125 4.914062 0.78125 3.5 C 0.78125 2.320312 1.191406 1.375 2.015625 0.65625 C 2.847656 -0.0507812 4.117188 -0.414062 5.828125 -0.4375 C 4.941406 -0.707031 4.273438 -1.148438 3.828125 -1.765625 C 3.390625 -2.378906 3.171875 -3.03125 3.171875 -3.71875 C 3.171875 -4.375 3.390625 -5 3.828125 -5.59375 C 4.273438 -6.195312 4.960938 -6.660156 5.890625 -6.984375 C 4.796875 -7.367188 3.925781 -8.007812 3.28125 -8.90625 C 2.632812 -9.800781 2.3125 -10.929688 2.3125 -12.296875 C 2.3125 -14.242188 2.84375 -15.78125 3.90625 -16.90625 C 4.976562 -18.03125 6.582031 -18.59375 8.71875 -18.59375 C 9.488281 -18.59375 10.195312 -18.492188 10.84375 -18.296875 C 11.488281 -18.109375 12.0625 -17.832031 12.5625 -17.46875 C 12.90625 -17.832031 13.359375 -18.226562 13.921875 -18.65625 C 14.492188 -19.082031 15.164062 -19.296875 15.9375 -19.296875 C 16.59375 -19.296875 17.082031 -19.117188 17.40625 -18.765625 C 17.738281 -18.421875 17.90625 -18 17.90625 -17.5 C 17.90625 -17.039062 17.765625 -16.664062 17.484375 -16.375 C 17.203125 -16.082031 16.742188 -15.9375 16.109375 -15.9375 C 16.109375 -17.34375 15.609375 -18.046875 14.609375 -18.046875 C 14.304688 -18.046875 14.03125 -17.988281 13.78125 -17.875 C 13.539062 -17.757812 13.222656 -17.554688 12.828125 -17.265625 C 13.492188 -16.710938 13.992188 -16.015625 14.328125 -15.171875 C 14.671875 -14.335938 14.84375 -13.410156 14.84375 -12.390625 C 14.84375 -10.710938 14.335938 -9.316406 13.328125 -8.203125 C 12.316406 -7.085938 10.78125 -6.53125 8.71875 -6.53125 C 7.851562 -6.53125 7.054688 -6.632812 6.328125 -6.84375 C 5.785156 -6.613281 5.410156 -6.335938 5.203125 -6.015625 C 5.003906 -5.703125 4.90625 -5.351562 4.90625 -4.96875 C 4.90625 -3.832031 5.742188 -3.265625 7.421875 -3.265625 L 11.265625 -3.265625 C 13.285156 -3.265625 14.726562 -2.785156 15.59375 -1.828125 C 16.457031 -0.878906 16.890625 0.328125 16.890625 1.796875 C 16.890625 3.753906 16.15625 5.304688 14.6875 6.453125 C 13.226562 7.597656 10.953125 8.171875 7.859375 8.171875 Z M 8.609375 -6.875 C 9.722656 -6.875 10.503906 -7.3125 10.953125 -8.1875 C 11.410156 -9.0625 11.640625 -10.460938 11.640625 -12.390625 C 11.640625 -14.390625 11.40625 -15.863281 10.9375 -16.8125 C 10.476562 -17.769531 9.691406 -18.25 8.578125 -18.25 C 7.492188 -18.25 6.710938 -17.753906 6.234375 -16.765625 C 5.753906 -15.773438 5.515625 -14.304688 5.515625 -12.359375 C 5.515625 -10.472656 5.757812 -9.085938 6.25 -8.203125 C 6.738281 -7.316406 7.523438 -6.875 8.609375 -6.875 Z M 8.140625 7.828125 C 10.296875 7.828125 11.882812 7.441406 12.90625 6.671875 C 13.925781 5.898438 14.4375 4.742188 14.4375 3.203125 C 14.4375 0.910156 13.164062 -0.234375 10.625 -0.234375 L 6.953125 -0.234375 C 6.316406 -0.234375 5.722656 -0.125 5.171875 0.09375 C 4.628906 0.320312 4.179688 0.71875 3.828125 1.28125 C 3.472656 1.851562 3.296875 2.640625 3.296875 3.640625 C 3.296875 5.023438 3.722656 6.066406 4.578125 6.765625 C 5.429688 7.472656 6.617188 7.828125 8.140625 7.828125 Z M 8.140625 7.828125 "/></g></g></g><g fill="#a57667" fill-opacity="1"><g transform="translate(109.873136, 230.113092)"><g><path d="M 9.640625 0.34375 C 7.617188 0.34375 6.117188 -0.179688 5.140625 -1.234375 C 4.160156 -2.296875 3.671875 -3.992188 3.671875 -6.328125 L 3.671875 -14.84375 C 3.671875 -16 3.46875 -16.796875 3.0625 -17.234375 C 2.65625 -17.679688 1.929688 -17.90625 0.890625 -17.90625 L 0.78125 -17.90625 L 0.78125 -18.25 L 6.875 -18.25 L 6.875 -6.15625 C 6.875 -4 7.113281 -2.457031 7.59375 -1.53125 C 8.070312 -0.601562 8.9375 -0.140625 10.1875 -0.140625 C 11.707031 -0.140625 12.847656 -0.734375 13.609375 -1.921875 C 14.367188 -3.117188 14.75 -4.816406 14.75 -7.015625 L 14.75 -14.84375 C 14.75 -16 14.546875 -16.796875 14.140625 -17.234375 C 13.742188 -17.679688 13.015625 -17.90625 11.953125 -17.90625 L 11.84375 -17.90625 L 11.84375 -18.25 L 17.9375 -18.25 L 17.9375 -3.375 C 17.9375 -2.21875 18.132812 -1.421875 18.53125 -0.984375 C 18.9375 -0.554688 19.671875 -0.34375 20.734375 -0.34375 L 20.84375 -0.34375 L 20.84375 0 L 14.984375 0 L 14.984375 -4.671875 L 14.90625 -4.671875 C 14.726562 -3.503906 14.441406 -2.585938 14.046875 -1.921875 C 13.648438 -1.253906 13.195312 -0.757812 12.6875 -0.4375 C 12.175781 -0.125 11.648438 0.0820312 11.109375 0.1875 C 10.578125 0.289062 10.085938 0.34375 9.640625 0.34375 Z M 9.640625 0.34375 "/></g></g></g><g fill="#a57667" fill-opacity="1"><g transform="translate(131.487375, 230.113092)"><g><path d="M 1.296875 8.171875 L 1.296875 7.828125 C 2.878906 7.828125 4.164062 7.707031 5.15625 7.46875 C 6.144531 7.226562 6.925781 6.851562 7.5 6.34375 C 8.082031 5.832031 8.570312 5.175781 8.96875 4.375 C 9.363281 3.570312 9.78125 2.613281 10.21875 1.5 L 2.75 -16.03125 C 2.457031 -16.757812 2.171875 -17.253906 1.890625 -17.515625 C 1.609375 -17.773438 1.25 -17.90625 0.8125 -17.90625 L 0.140625 -17.90625 L 0.140625 -18.25 L 8.3125 -18.25 L 8.3125 -17.90625 L 8.203125 -17.90625 C 7.566406 -17.90625 7.0625 -17.804688 6.6875 -17.609375 C 6.3125 -17.421875 6.125 -17.078125 6.125 -16.578125 C 6.125 -16.191406 6.257812 -15.671875 6.53125 -15.015625 L 9.46875 -7.90625 C 9.800781 -7.0625 10.160156 -6.128906 10.546875 -5.109375 C 10.941406 -4.085938 11.265625 -3.191406 11.515625 -2.421875 C 11.804688 -3.304688 12.085938 -4.144531 12.359375 -4.9375 C 12.628906 -5.726562 12.859375 -6.421875 13.046875 -7.015625 L 15.53125 -14.8125 C 15.726562 -15.425781 15.828125 -15.9375 15.828125 -16.34375 C 15.828125 -17.382812 15.078125 -17.90625 13.578125 -17.90625 L 12.15625 -17.90625 L 12.15625 -18.25 L 19.234375 -18.25 L 19.234375 -17.90625 L 18.96875 -17.90625 C 18.125 -17.90625 17.515625 -17.734375 17.140625 -17.390625 C 16.765625 -17.054688 16.394531 -16.34375 16.03125 -15.25 L 11.0625 0.140625 C 10.539062 1.773438 10.03125 3.113281 9.53125 4.15625 C 9.03125 5.195312 8.453125 6.007812 7.796875 6.59375 C 7.140625 7.1875 6.316406 7.597656 5.328125 7.828125 C 4.335938 8.054688 3.09375 8.171875 1.59375 8.171875 Z M 1.296875 8.171875 "/></g></g></g><g fill="#a57667" fill-opacity="1"><g transform="translate(150.718942, 230.113092)"><g><path d="M 9.9375 0.34375 C 7.394531 0.34375 5.414062 -0.472656 4 -2.109375 C 2.582031 -3.742188 1.875 -6.035156 1.875 -8.984375 C 1.875 -12.160156 2.523438 -14.554688 3.828125 -16.171875 C 5.128906 -17.785156 7 -18.59375 9.4375 -18.59375 C 11.632812 -18.59375 13.363281 -17.910156 14.625 -16.546875 C 15.882812 -15.179688 16.515625 -13.148438 16.515625 -10.453125 L 16.515625 -9.640625 L 5.171875 -9.640625 C 5.191406 -6.160156 5.570312 -3.679688 6.3125 -2.203125 C 7.050781 -0.734375 8.296875 0 10.046875 0 C 11.316406 0 12.390625 -0.347656 13.265625 -1.046875 C 14.140625 -1.753906 14.703125 -2.800781 14.953125 -4.1875 C 15.222656 -4.144531 15.425781 -4.007812 15.5625 -3.78125 C 15.695312 -3.550781 15.765625 -3.3125 15.765625 -3.0625 C 15.765625 -2.613281 15.546875 -2.117188 15.109375 -1.578125 C 14.679688 -1.046875 14.039062 -0.59375 13.1875 -0.21875 C 12.34375 0.15625 11.257812 0.34375 9.9375 0.34375 Z M 5.171875 -9.96875 L 13.078125 -9.96875 C 13.078125 -12.945312 12.789062 -15.070312 12.21875 -16.34375 C 11.65625 -17.613281 10.703125 -18.25 9.359375 -18.25 C 7.972656 -18.25 6.957031 -17.613281 6.3125 -16.34375 C 5.664062 -15.070312 5.285156 -12.945312 5.171875 -9.96875 Z M 3.9375 -26.359375 C 4.050781 -27.398438 4.375 -28.269531 4.90625 -28.96875 C 5.445312 -29.675781 6.144531 -30.03125 7 -30.03125 C 7.59375 -30.03125 8.175781 -29.894531 8.75 -29.625 C 9.332031 -29.351562 9.929688 -29.070312 10.546875 -28.78125 C 11.160156 -28.5 11.796875 -28.359375 12.453125 -28.359375 C 12.992188 -28.359375 13.394531 -28.488281 13.65625 -28.75 C 13.914062 -29.007812 14.140625 -29.445312 14.328125 -30.0625 L 14.671875 -30.0625 C 14.578125 -28.96875 14.25 -28.082031 13.6875 -27.40625 C 13.132812 -26.726562 12.453125 -26.390625 11.640625 -26.390625 C 11.066406 -26.390625 10.488281 -26.523438 9.90625 -26.796875 C 9.332031 -27.066406 8.738281 -27.335938 8.125 -27.609375 C 7.507812 -27.878906 6.851562 -28.015625 6.15625 -28.015625 C 5.539062 -28.015625 5.113281 -27.878906 4.875 -27.609375 C 4.632812 -27.335938 4.4375 -26.921875 4.28125 -26.359375 Z M 4.1875 -20.625 L 4.1875 -20.9375 C 4.84375 -21.570312 5.515625 -22.304688 6.203125 -23.140625 C 6.898438 -23.984375 7.472656 -24.738281 7.921875 -25.40625 L 10.484375 -25.40625 C 10.910156 -24.738281 11.472656 -23.984375 12.171875 -23.140625 C 12.878906 -22.304688 13.5625 -21.570312 14.21875 -20.9375 L 14.21875 -20.625 L 13.890625 -20.625 C 13.453125 -20.851562 12.9375 -21.140625 12.34375 -21.484375 C 11.757812 -21.828125 11.179688 -22.191406 10.609375 -22.578125 C 10.046875 -22.960938 9.582031 -23.3125 9.21875 -23.625 C 8.851562 -23.3125 8.382812 -22.960938 7.8125 -22.578125 C 7.25 -22.191406 6.664062 -21.828125 6.0625 -21.484375 C 5.46875 -21.140625 4.953125 -20.851562 4.515625 -20.625 Z M 4.1875 -20.625 "/></g></g></g><g fill="#a57667" fill-opacity="1"><g transform="translate(168.929369, 230.113092)"><g><path d="M 0.953125 0 L 0.953125 -0.34375 L 1.21875 -0.34375 C 2.269531 -0.34375 3 -0.566406 3.40625 -1.015625 C 3.8125 -1.472656 4.015625 -2.289062 4.015625 -3.46875 L 4.015625 -14.84375 C 4.015625 -16 3.820312 -16.796875 3.4375 -17.234375 C 3.050781 -17.679688 2.335938 -17.90625 1.296875 -17.90625 L 1.125 -17.90625 L 1.125 -18.25 L 7.1875 -18.25 L 7.1875 -15.046875 L 7.25 -15.046875 C 7.539062 -16.085938 7.976562 -16.863281 8.5625 -17.375 C 9.144531 -17.882812 9.769531 -18.210938 10.4375 -18.359375 C 11.101562 -18.515625 11.722656 -18.59375 12.296875 -18.59375 C 14.316406 -18.59375 15.816406 -18.0625 16.796875 -17 C 17.785156 -15.945312 18.28125 -14.253906 18.28125 -11.921875 L 18.28125 -3.46875 C 18.28125 -2.289062 18.460938 -1.472656 18.828125 -1.015625 C 19.191406 -0.566406 19.863281 -0.34375 20.84375 -0.34375 L 21 -0.34375 L 21 0 L 15.078125 0 L 15.078125 -13.078125 C 15.078125 -14.546875 14.800781 -15.742188 14.25 -16.671875 C 13.695312 -17.609375 12.757812 -18.078125 11.4375 -18.078125 C 10.375 -18.078125 9.535156 -17.789062 8.921875 -17.21875 C 8.304688 -16.65625 7.867188 -15.925781 7.609375 -15.03125 C 7.347656 -14.132812 7.21875 -13.195312 7.21875 -12.21875 L 7.21875 -3.46875 C 7.21875 -2.289062 7.410156 -1.472656 7.796875 -1.015625 C 8.179688 -0.566406 8.894531 -0.34375 9.9375 -0.34375 L 10.109375 -0.34375 L 10.109375 0 Z M 0.953125 0 "/></g></g></g><g fill="#a57667" fill-opacity="1"><g transform="translate(190.883992, 230.113092)"><g/></g></g><g fill="#a57667" fill-opacity="1"><g transform="translate(198.542575, 230.113092)"><g><path d="M 1.328125 0 L 1.328125 -0.34375 L 1.765625 -0.34375 C 3.628906 -0.34375 4.5625 -1.160156 4.5625 -2.796875 L 4.5625 -21.65625 C 4.5625 -23.195312 3.628906 -23.96875 1.765625 -23.96875 L 1.328125 -23.96875 L 1.328125 -24.3125 L 11.234375 -24.3125 L 11.234375 -23.96875 L 10.796875 -23.96875 C 8.929688 -23.96875 8 -23.148438 8 -21.515625 L 8 -12.875 L 19.03125 -12.875 L 19.03125 -21.515625 C 19.03125 -23.148438 18.097656 -23.96875 16.234375 -23.96875 L 15.796875 -23.96875 L 15.796875 -24.3125 L 25.703125 -24.3125 L 25.703125 -23.96875 L 25.265625 -23.96875 C 23.398438 -23.96875 22.46875 -23.195312 22.46875 -21.65625 L 22.46875 -2.796875 C 22.46875 -1.160156 23.398438 -0.34375 25.265625 -0.34375 L 25.703125 -0.34375 L 25.703125 0 L 15.796875 0 L 15.796875 -0.34375 L 16.234375 -0.34375 C 18.097656 -0.34375 19.03125 -1.160156 19.03125 -2.796875 L 19.03125 -12.53125 L 8 -12.53125 L 8 -2.796875 C 8 -1.160156 8.929688 -0.34375 10.796875 -0.34375 L 11.234375 -0.34375 L 11.234375 0 Z M 1.328125 0 "/></g></g></g><g fill="#a57667" fill-opacity="1"><g transform="translate(225.534852, 230.113092)"><g><path d="M 7.3125 0.34375 C 5.570312 0.34375 4.203125 -0.101562 3.203125 -1 C 2.203125 -1.894531 1.703125 -3.128906 1.703125 -4.703125 C 1.703125 -6.441406 2.34375 -7.742188 3.625 -8.609375 C 4.90625 -9.472656 6.851562 -9.953125 9.46875 -10.046875 L 12.296875 -10.140625 L 12.296875 -12.703125 C 12.296875 -13.972656 12.222656 -15.015625 12.078125 -15.828125 C 11.941406 -16.648438 11.644531 -17.257812 11.1875 -17.65625 C 10.738281 -18.050781 10.050781 -18.25 9.125 -18.25 C 7.8125 -18.25 6.96875 -17.835938 6.59375 -17.015625 C 6.21875 -16.203125 6.03125 -14.921875 6.03125 -13.171875 C 5.070312 -13.171875 4.347656 -13.328125 3.859375 -13.640625 C 3.367188 -13.960938 3.125 -14.488281 3.125 -15.21875 C 3.125 -16.03125 3.398438 -16.679688 3.953125 -17.171875 C 4.515625 -17.660156 5.253906 -18.019531 6.171875 -18.25 C 7.097656 -18.476562 8.128906 -18.59375 9.265625 -18.59375 C 11.347656 -18.59375 12.90625 -18.148438 13.9375 -17.265625 C 14.96875 -16.378906 15.484375 -14.859375 15.484375 -12.703125 L 15.484375 -2.515625 C 15.484375 -1.703125 15.640625 -1.132812 15.953125 -0.8125 C 16.273438 -0.5 16.828125 -0.34375 17.609375 -0.34375 L 17.703125 -0.34375 L 17.703125 0 L 12.5625 0 L 12.5625 -3.578125 L 12.5 -3.578125 C 12.132812 -2.210938 11.488281 -1.21875 10.5625 -0.59375 C 9.644531 0.03125 8.5625 0.34375 7.3125 0.34375 Z M 8 -0.140625 C 8.84375 -0.140625 9.585938 -0.351562 10.234375 -0.78125 C 10.878906 -1.21875 11.382812 -1.796875 11.75 -2.515625 C 12.113281 -3.242188 12.296875 -4.03125 12.296875 -4.875 L 12.296875 -9.765625 L 10.109375 -9.671875 C 8.179688 -9.578125 6.847656 -9.132812 6.109375 -8.34375 C 5.367188 -7.550781 5 -6.210938 5 -4.328125 C 5 -1.535156 6 -0.140625 8 -0.140625 Z M 8.71875 -20.09375 L 8.171875 -22.78125 C 8.921875 -22.78125 9.554688 -22.929688 10.078125 -23.234375 C 10.597656 -23.546875 10.859375 -24.234375 10.859375 -25.296875 C 10.859375 -26.203125 10.671875 -26.804688 10.296875 -27.109375 C 9.921875 -27.421875 9.453125 -27.578125 8.890625 -27.578125 C 8.347656 -27.578125 7.867188 -27.40625 7.453125 -27.0625 C 7.046875 -26.726562 6.84375 -25.992188 6.84375 -24.859375 C 6.34375 -24.941406 6.007812 -25.097656 5.84375 -25.328125 C 5.675781 -25.554688 5.59375 -25.804688 5.59375 -26.078125 C 5.59375 -26.710938 5.929688 -27.175781 6.609375 -27.46875 C 7.285156 -27.769531 8.078125 -27.921875 8.984375 -27.921875 C 10.191406 -27.921875 11.175781 -27.6875 11.9375 -27.21875 C 12.695312 -26.75 13.078125 -26.0625 13.078125 -25.15625 C 13.078125 -23.726562 11.921875 -22.878906 9.609375 -22.609375 L 9.0625 -20.09375 Z M 8.71875 -20.09375 "/></g></g></g><g fill="#a57667" fill-opacity="1"><g transform="translate(244.698341, 230.113092)"><g><path d="M 5.453125 -21.515625 C 5.015625 -21.515625 4.65625 -21.65625 4.375 -21.9375 C 4.09375 -22.226562 3.953125 -22.722656 3.953125 -23.421875 C 3.953125 -24.148438 4.09375 -24.648438 4.375 -24.921875 C 4.65625 -25.191406 5.015625 -25.328125 5.453125 -25.328125 C 5.859375 -25.328125 6.207031 -25.191406 6.5 -24.921875 C 6.800781 -24.648438 6.953125 -24.148438 6.953125 -23.421875 C 6.953125 -22.722656 6.800781 -22.226562 6.5 -21.9375 C 6.207031 -21.65625 5.859375 -21.515625 5.453125 -21.515625 Z M 0.78125 0 L 0.78125 -0.34375 L 1.21875 -0.34375 C 2.21875 -0.34375 2.929688 -0.546875 3.359375 -0.953125 C 3.796875 -1.359375 4.015625 -2.03125 4.015625 -2.96875 L 4.015625 -15.25 C 4.015625 -16.207031 3.796875 -16.890625 3.359375 -17.296875 C 2.929688 -17.703125 2.21875 -17.90625 1.21875 -17.90625 L 1.125 -17.90625 L 1.125 -18.25 L 7.21875 -18.25 L 7.21875 -3.125 C 7.21875 -2.132812 7.429688 -1.421875 7.859375 -0.984375 C 8.296875 -0.554688 9.015625 -0.34375 10.015625 -0.34375 L 10.453125 -0.34375 L 10.453125 0 Z M 0.78125 0 "/></g></g></g><g fill="#a57667" fill-opacity="1"><g transform="translate(255.590557, 230.113092)"><g/></g></g><g fill="#a57667" fill-opacity="1"><g transform="translate(263.249139, 230.113092)"><g><path d="M 1.328125 0 L 1.328125 -0.34375 L 1.765625 -0.34375 C 3.628906 -0.34375 4.5625 -1.160156 4.5625 -2.796875 L 4.5625 -21.65625 C 4.5625 -23.195312 3.628906 -23.96875 1.765625 -23.96875 L 1.328125 -23.96875 L 1.328125 -24.3125 L 11.234375 -24.3125 L 11.234375 -23.96875 L 10.796875 -23.96875 C 8.929688 -23.96875 8 -23.148438 8 -21.515625 L 8 -12.875 L 19.03125 -12.875 L 19.03125 -21.515625 C 19.03125 -23.148438 18.097656 -23.96875 16.234375 -23.96875 L 15.796875 -23.96875 L 15.796875 -24.3125 L 25.703125 -24.3125 L 25.703125 -23.96875 L 25.265625 -23.96875 C 23.398438 -23.96875 22.46875 -23.195312 22.46875 -21.65625 L 22.46875 -2.796875 C 22.46875 -1.160156 23.398438 -0.34375 25.265625 -0.34375 L 25.703125 -0.34375 L 25.703125 0 L 15.796875 0 L 15.796875 -0.34375 L 16.234375 -0.34375 C 18.097656 -0.34375 19.03125 -1.160156 19.03125 -2.796875 L 19.03125 -12.53125 L 8 -12.53125 L 8 -2.796875 C 8 -1.160156 8.929688 -0.34375 10.796875 -0.34375 L 11.234375 -0.34375 L 11.234375 0 Z M 1.328125 0 "/></g></g></g><g fill="#a57667" fill-opacity="1"><g transform="translate(290.241403, 230.113092)"><g><path d="M 7.3125 0.34375 C 5.570312 0.34375 4.203125 -0.101562 3.203125 -1 C 2.203125 -1.894531 1.703125 -3.128906 1.703125 -4.703125 C 1.703125 -6.441406 2.34375 -7.742188 3.625 -8.609375 C 4.90625 -9.472656 6.851562 -9.953125 9.46875 -10.046875 L 12.296875 -10.140625 L 12.296875 -12.703125 C 12.296875 -13.972656 12.222656 -15.015625 12.078125 -15.828125 C 11.941406 -16.648438 11.644531 -17.257812 11.1875 -17.65625 C 10.738281 -18.050781 10.050781 -18.25 9.125 -18.25 C 7.8125 -18.25 6.96875 -17.835938 6.59375 -17.015625 C 6.21875 -16.203125 6.03125 -14.921875 6.03125 -13.171875 C 5.070312 -13.171875 4.347656 -13.328125 3.859375 -13.640625 C 3.367188 -13.960938 3.125 -14.488281 3.125 -15.21875 C 3.125 -16.03125 3.398438 -16.679688 3.953125 -17.171875 C 4.515625 -17.660156 5.253906 -18.019531 6.171875 -18.25 C 7.097656 -18.476562 8.128906 -18.59375 9.265625 -18.59375 C 11.347656 -18.59375 12.90625 -18.148438 13.9375 -17.265625 C 14.96875 -16.378906 15.484375 -14.859375 15.484375 -12.703125 L 15.484375 -2.515625 C 15.484375 -1.703125 15.640625 -1.132812 15.953125 -0.8125 C 16.273438 -0.5 16.828125 -0.34375 17.609375 -0.34375 L 17.703125 -0.34375 L 17.703125 0 L 12.5625 0 L 12.5625 -3.578125 L 12.5 -3.578125 C 12.132812 -2.210938 11.488281 -1.21875 10.5625 -0.59375 C 9.644531 0.03125 8.5625 0.34375 7.3125 0.34375 Z M 8 -0.140625 C 8.84375 -0.140625 9.585938 -0.351562 10.234375 -0.78125 C 10.878906 -1.21875 11.382812 -1.796875 11.75 -2.515625 C 12.113281 -3.242188 12.296875 -4.03125 12.296875 -4.875 L 12.296875 -9.765625 L 10.109375 -9.671875 C 8.179688 -9.578125 6.847656 -9.132812 6.109375 -8.34375 C 5.367188 -7.550781 5 -6.210938 5 -4.328125 C 5 -1.535156 6 -0.140625 8 -0.140625 Z M 10.359375 -20.625 C 9.765625 -21.082031 9.09375 -21.640625 8.34375 -22.296875 C 7.59375 -22.953125 6.890625 -23.585938 6.234375 -24.203125 C 5.578125 -24.816406 5.085938 -25.328125 4.765625 -25.734375 L 4.765625 -26.078125 L 7.828125 -26.078125 C 8.191406 -25.304688 8.640625 -24.441406 9.171875 -23.484375 C 9.710938 -22.535156 10.21875 -21.695312 10.6875 -20.96875 L 10.6875 -20.625 Z M 10.359375 -20.625 "/></g></g></g><g fill="#a57667" fill-opacity="1"><g transform="translate(115.519613, 257.70553)"><g><path d="M 6.5 0 L 5.625 0 L 1.609375 -3.5625 L 1.609375 0 L 0.96875 0 L 0.96875 -7.453125 L 1.609375 -7.453125 L 1.609375 -4 L 5.421875 -7.453125 L 6.28125 -7.453125 L 2.265625 -3.8125 Z M 6.5 0 "/></g></g></g><g fill="#a57667" fill-opacity="1"><g transform="translate(124.050986, 257.70553)"><g><path d="M 6.359375 -7.453125 L 7.015625 -7.453125 L 7.015625 0 L 6.359375 0 L 6.359375 -3.5 L 1.609375 -3.5 L 1.609375 0 L 0.96875 0 L 0.96875 -7.453125 L 1.609375 -7.453125 L 1.609375 -4.078125 L 6.359375 -4.078125 Z M 6.359375 -7.453125 "/></g></g></g><g fill="#a57667" fill-opacity="1"><g transform="translate(134.078606, 257.70553)"><g><path d="M 7.328125 -8.546875 C 7.328125 -8.078125 7.195312 -7.707031 6.9375 -7.4375 C 6.675781 -7.175781 6.316406 -7.03125 5.859375 -7 C 6.335938 -6.6875 6.703125 -6.253906 6.953125 -5.703125 C 7.203125 -5.148438 7.328125 -4.492188 7.328125 -3.734375 C 7.328125 -2.953125 7.191406 -2.273438 6.921875 -1.703125 C 6.648438 -1.128906 6.265625 -0.6875 5.765625 -0.375 C 5.265625 -0.0703125 4.675781 0.078125 4 0.078125 C 3.332031 0.078125 2.742188 -0.0703125 2.234375 -0.375 C 1.734375 -0.6875 1.347656 -1.128906 1.078125 -1.703125 C 0.816406 -2.273438 0.6875 -2.953125 0.6875 -3.734375 C 0.6875 -4.515625 0.816406 -5.1875 1.078125 -5.75 C 1.347656 -6.320312 1.734375 -6.757812 2.234375 -7.0625 C 2.742188 -7.375 3.347656 -7.53125 4.046875 -7.53125 C 4.234375 -7.53125 4.5 -7.519531 4.84375 -7.5 C 5.164062 -7.46875 5.390625 -7.453125 5.515625 -7.453125 C 5.960938 -7.460938 6.273438 -7.554688 6.453125 -7.734375 C 6.640625 -7.910156 6.734375 -8.210938 6.734375 -8.640625 L 6.734375 -8.78125 L 7.328125 -8.78125 Z M 6.640625 -3.734375 C 6.640625 -4.765625 6.410156 -5.5625 5.953125 -6.125 C 5.492188 -6.6875 4.84375 -6.96875 4 -6.96875 C 3.164062 -6.96875 2.515625 -6.6875 2.046875 -6.125 C 1.578125 -5.5625 1.34375 -4.765625 1.34375 -3.734375 C 1.34375 -2.710938 1.578125 -1.914062 2.046875 -1.34375 C 2.515625 -0.769531 3.164062 -0.484375 4 -0.484375 C 4.832031 -0.484375 5.476562 -0.765625 5.9375 -1.328125 C 6.40625 -1.898438 6.640625 -2.703125 6.640625 -3.734375 Z M 4.25 -8.09375 L 3.75 -8.09375 L 3.75 -8.265625 C 3.75 -8.378906 3.785156 -8.472656 3.859375 -8.546875 C 3.941406 -8.628906 4.050781 -8.703125 4.1875 -8.765625 C 4.28125 -8.828125 4.347656 -8.875 4.390625 -8.90625 C 4.441406 -8.945312 4.46875 -8.992188 4.46875 -9.046875 C 4.46875 -9.117188 4.425781 -9.171875 4.34375 -9.203125 C 4.269531 -9.234375 4.160156 -9.25 4.015625 -9.25 C 3.796875 -9.25 3.578125 -9.207031 3.359375 -9.125 L 3.21875 -9.546875 C 3.488281 -9.660156 3.765625 -9.71875 4.046875 -9.71875 C 4.359375 -9.71875 4.601562 -9.65625 4.78125 -9.53125 C 4.96875 -9.414062 5.0625 -9.257812 5.0625 -9.0625 C 5.0625 -8.914062 5.015625 -8.800781 4.921875 -8.71875 C 4.835938 -8.644531 4.722656 -8.570312 4.578125 -8.5 C 4.453125 -8.425781 4.363281 -8.367188 4.3125 -8.328125 C 4.269531 -8.296875 4.25 -8.25 4.25 -8.1875 Z M 4.25 -8.09375 "/></g></g></g><g fill="#a57667" fill-opacity="1"><g transform="translate(144.137611, 257.70553)"><g><path d="M 0.96875 0 L 0.96875 -7.453125 L 1.609375 -7.453125 L 1.609375 0 Z M 0.96875 0 "/></g></g></g><g fill="#a57667" fill-opacity="1"><g transform="translate(148.766177, 257.70553)"><g/></g></g><g fill="#a57667" fill-opacity="1"><g transform="translate(153.488918, 257.70553)"><g><path d="M 6.203125 -7.453125 L 6.796875 -7.453125 L 6.796875 0 L 6.296875 0 L 1.5625 -6.359375 L 1.5625 0 L 0.96875 0 L 0.96875 -7.453125 L 1.46875 -7.453125 L 6.203125 -1.09375 Z M 6.203125 -7.453125 "/></g></g></g><g fill="#a57667" fill-opacity="1"><g transform="translate(163.307265, 257.70553)"><g><path d="M 6.71875 -3.828125 L 6.71875 -0.421875 C 6.445312 -0.273438 6.070312 -0.15625 5.59375 -0.0625 C 5.125 0.03125 4.648438 0.078125 4.171875 0.078125 C 3.441406 0.078125 2.8125 -0.0703125 2.28125 -0.375 C 1.757812 -0.675781 1.363281 -1.113281 1.09375 -1.6875 C 0.820312 -2.257812 0.6875 -2.941406 0.6875 -3.734375 C 0.6875 -4.523438 0.820312 -5.207031 1.09375 -5.78125 C 1.363281 -6.351562 1.757812 -6.785156 2.28125 -7.078125 C 2.800781 -7.378906 3.410156 -7.53125 4.109375 -7.53125 C 5.160156 -7.53125 6.003906 -7.207031 6.640625 -6.5625 L 6.375 -6.046875 C 6.019531 -6.367188 5.660156 -6.601562 5.296875 -6.75 C 4.941406 -6.894531 4.546875 -6.96875 4.109375 -6.96875 C 3.222656 -6.96875 2.539062 -6.6875 2.0625 -6.125 C 1.582031 -5.5625 1.34375 -4.765625 1.34375 -3.734375 C 1.34375 -2.679688 1.585938 -1.875 2.078125 -1.3125 C 2.566406 -0.757812 3.265625 -0.484375 4.171875 -0.484375 C 4.878906 -0.484375 5.535156 -0.597656 6.140625 -0.828125 L 6.140625 -3.265625 L 4.171875 -3.265625 L 4.171875 -3.828125 Z M 6.71875 -3.828125 "/></g></g></g><g fill="#a57667" fill-opacity="1"><g transform="translate(172.958199, 257.70553)"><g><path d="M 3.8125 0.078125 C 2.863281 0.078125 2.140625 -0.164062 1.640625 -0.65625 C 1.148438 -1.15625 0.90625 -1.894531 0.90625 -2.875 L 0.90625 -7.453125 L 1.5625 -7.453125 L 1.5625 -2.796875 C 1.5625 -1.253906 2.3125 -0.484375 3.8125 -0.484375 C 4.539062 -0.484375 5.09375 -0.675781 5.46875 -1.0625 C 5.851562 -1.457031 6.046875 -2.035156 6.046875 -2.796875 L 6.046875 -7.453125 L 6.6875 -7.453125 L 6.6875 -2.875 C 6.6875 -1.894531 6.441406 -1.15625 5.953125 -0.65625 C 5.460938 -0.164062 4.75 0.078125 3.8125 0.078125 Z M 3.8125 0.078125 "/></g></g></g><g fill="#a57667" fill-opacity="1"><g transform="translate(182.609133, 257.70553)"><g><path d="M 4 0.078125 C 3.320312 0.078125 2.734375 -0.0703125 2.234375 -0.375 C 1.734375 -0.6875 1.347656 -1.125 1.078125 -1.6875 C 0.816406 -2.257812 0.6875 -2.941406 0.6875 -3.734375 C 0.6875 -4.515625 0.816406 -5.1875 1.078125 -5.75 C 1.335938 -6.320312 1.71875 -6.757812 2.21875 -7.0625 C 2.71875 -7.375 3.3125 -7.53125 4 -7.53125 C 4.6875 -7.53125 5.28125 -7.375 5.78125 -7.0625 C 6.28125 -6.757812 6.660156 -6.320312 6.921875 -5.75 C 7.191406 -5.1875 7.328125 -4.515625 7.328125 -3.734375 C 7.328125 -2.953125 7.191406 -2.273438 6.921875 -1.703125 C 6.648438 -1.128906 6.265625 -0.6875 5.765625 -0.375 C 5.273438 -0.0703125 4.6875 0.078125 4 0.078125 Z M 4 -0.484375 C 4.832031 -0.484375 5.476562 -0.765625 5.9375 -1.328125 C 6.40625 -1.898438 6.640625 -2.703125 6.640625 -3.734375 C 6.640625 -4.765625 6.410156 -5.5625 5.953125 -6.125 C 5.492188 -6.6875 4.84375 -6.96875 4 -6.96875 C 3.164062 -6.96875 2.515625 -6.6875 2.046875 -6.125 C 1.578125 -5.5625 1.34375 -4.765625 1.34375 -3.734375 C 1.34375 -2.710938 1.578125 -1.914062 2.046875 -1.34375 C 2.515625 -0.769531 3.164062 -0.484375 4 -0.484375 Z M 5.3125 -9.15625 L 4.171875 -10.65625 L 4.921875 -10.65625 L 5.75 -9.15625 Z M 3.1875 -8.09375 L 2.53125 -8.09375 L 3.75 -9.65625 L 4.234375 -9.65625 L 5.453125 -8.09375 L 4.796875 -8.09375 L 4 -9.21875 Z M 3.1875 -8.09375 "/></g></g></g><g fill="#a57667" fill-opacity="1"><g transform="translate(192.668142, 257.70553)"><g><path d="M 6.203125 -7.453125 L 6.796875 -7.453125 L 6.796875 0 L 6.296875 0 L 1.5625 -6.359375 L 1.5625 0 L 0.96875 0 L 0.96875 -7.453125 L 1.46875 -7.453125 L 6.203125 -1.09375 Z M 6.203125 -7.453125 "/></g></g></g><g fill="#a57667" fill-opacity="1"><g transform="translate(202.486489, 257.70553)"><g/></g></g><g fill="#a57667" fill-opacity="1"><g transform="translate(207.209233, 257.70553)"><g><path d="M 3.453125 -7.453125 C 4.628906 -7.453125 5.539062 -7.128906 6.1875 -6.484375 C 6.832031 -5.847656 7.15625 -4.929688 7.15625 -3.734375 C 7.15625 -2.546875 6.832031 -1.625 6.1875 -0.96875 C 5.539062 -0.320312 4.628906 0 3.453125 0 L 1.0625 0 L 1.0625 -3.5 L 0.0625 -3.5 L 0.0625 -4.046875 L 1.0625 -4.046875 L 1.0625 -7.453125 Z M 3.421875 -0.5625 C 4.429688 -0.5625 5.191406 -0.828125 5.703125 -1.359375 C 6.210938 -1.898438 6.46875 -2.691406 6.46875 -3.734375 C 6.46875 -5.835938 5.453125 -6.890625 3.421875 -6.890625 L 1.703125 -6.890625 L 1.703125 -4.046875 L 3.765625 -4.046875 L 3.765625 -3.5 L 1.703125 -3.5 L 1.703125 -0.5625 Z M 3.421875 -0.5625 "/></g></g></g><g fill="#a57667" fill-opacity="1"><g transform="translate(217.090367, 257.70553)"><g><path d="M 6.671875 0 L 5.828125 -1.984375 L 1.796875 -1.984375 L 0.9375 0 L 0.265625 0 L 3.515625 -7.453125 L 4.109375 -7.453125 L 7.34375 0 Z M 2.046875 -2.546875 L 5.5625 -2.546875 L 3.8125 -6.671875 Z M 2.046875 -2.546875 "/></g></g></g><g fill="#a57667" fill-opacity="1"><g transform="translate(226.751758, 257.70553)"><g><path d="M 7.375 -7.453125 L 7.921875 -7.453125 L 7.921875 0 L 7.3125 0 L 7.3125 -5.96875 L 4.6875 0 L 4.203125 0 L 1.5625 -5.921875 L 1.578125 0 L 0.96875 0 L 0.96875 -7.453125 L 1.5 -7.453125 L 4.453125 -0.78125 Z M 7.375 -7.453125 "/></g></g></g><g fill="#a57667" fill-opacity="1"><g transform="translate(237.679208, 257.70553)"><g/></g></g><g fill="#a57667" fill-opacity="1"><g transform="translate(242.401946, 257.70553)"><g><path d="M 7.375 -7.453125 L 7.921875 -7.453125 L 7.921875 0 L 7.3125 0 L 7.3125 -5.96875 L 4.6875 0 L 4.203125 0 L 1.5625 -5.921875 L 1.578125 0 L 0.96875 0 L 0.96875 -7.453125 L 1.5 -7.453125 L 4.453125 -0.78125 Z M 7.375 -7.453125 "/></g></g></g><g fill="#a57667" fill-opacity="1"><g transform="translate(253.329397, 257.70553)"><g><path d="M 0.96875 0 L 0.96875 -7.453125 L 5.5625 -7.453125 L 5.5625 -6.90625 L 1.609375 -6.90625 L 1.609375 -4.078125 L 5.34375 -4.078125 L 5.34375 -3.5 L 1.609375 -3.5 L 1.609375 -0.5625 L 5.5625 -0.5625 L 5.5625 0 Z M 2.59375 -8.09375 L 1.9375 -8.09375 L 3.15625 -9.671875 L 3.640625 -9.671875 L 4.859375 -8.09375 L 4.203125 -8.09375 L 3.40625 -9.234375 Z M 2.59375 -8.09375 "/></g></g></g></svg>